<svg width="50" height="50" viewBox="0 0 50 50" fill="none" xmlns="http://www.w3.org/2000/svg">
<path d="M24.9978 15.3687C22.4429 15.3687 19.9926 16.3836 18.186 18.1902C16.3794 19.9968 15.3645 22.4471 15.3645 25.002C15.3645 27.5569 16.3794 30.0072 18.186 31.8138C19.9926 33.6204 22.4429 34.6353 24.9978 34.6353C27.5528 34.6353 30.003 33.6204 31.8096 31.8138C33.6162 30.0072 34.6312 27.5569 34.6312 25.002C34.6312 22.4471 33.6162 19.9968 31.8096 18.1902C30.003 16.3836 27.5528 15.3687 24.9978 15.3687ZM24.9978 31.2582C23.338 31.2582 21.7462 30.5989 20.5725 29.4252C19.3989 28.2515 18.7395 26.6597 18.7395 24.9999C18.7395 23.3401 19.3989 21.7483 20.5725 20.5746C21.7462 19.4009 23.338 18.7416 24.9978 18.7416C26.6576 18.7416 28.2495 19.4009 29.4231 20.5746C30.5968 21.7483 31.2562 23.3401 31.2562 24.9999C31.2562 26.6597 30.5968 28.2515 29.4231 29.4252C28.2495 30.5989 26.6576 31.2582 24.9978 31.2582Z" fill="black"/>
<path d="M35.0124 17.2605C36.2528 17.2605 37.2583 16.255 37.2583 15.0146C37.2583 13.7743 36.2528 12.7688 35.0124 12.7688C33.7721 12.7688 32.7666 13.7743 32.7666 15.0146C32.7666 16.255 33.7721 17.2605 35.0124 17.2605Z" fill="black"/>
<path d="M42.7771 12.7313C42.2948 11.4859 41.5578 10.3548 40.6132 9.41062C39.6686 8.4664 38.5373 7.72981 37.2917 7.248C35.834 6.70082 34.2941 6.40496 32.7375 6.373C30.7312 6.2855 30.0958 6.2605 25.0083 6.2605C19.9208 6.2605 19.2687 6.2605 17.2792 6.373C15.7237 6.40332 14.1849 6.69925 12.7292 7.248C11.4832 7.72925 10.3516 8.46564 9.40693 9.40993C8.46228 10.3542 7.72546 11.4855 7.24373 12.7313C6.69645 14.1889 6.40126 15.7289 6.37082 17.2855C6.28123 19.2897 6.25415 19.9251 6.25415 25.0147C6.25415 30.1022 6.25415 30.7501 6.37082 32.7438C6.40207 34.3022 6.69582 35.8397 7.24373 37.3001C7.72681 38.5454 8.46435 39.6763 9.40923 40.6204C10.3541 41.5646 11.4855 42.3013 12.7312 42.7834C14.1842 43.3526 15.7237 43.6696 17.2833 43.7209C19.2896 43.8084 19.925 43.8355 25.0125 43.8355C30.1 43.8355 30.7521 43.8355 32.7417 43.7209C34.2981 43.6893 35.838 43.3941 37.2958 42.848C38.5411 42.3651 39.6721 41.6278 40.6166 40.6834C41.5611 39.7389 42.2983 38.6079 42.7812 37.3626C43.3292 35.9042 43.6229 34.3667 43.6542 32.8084C43.7437 30.8042 43.7708 30.1688 43.7708 25.0792C43.7708 19.9897 43.7708 19.3438 43.6542 17.3501C43.6299 15.7715 43.3332 14.2089 42.7771 12.7313ZM40.2396 32.5897C40.2261 33.7903 40.007 34.9797 39.5917 36.1063C39.2788 36.9165 38.7998 37.6522 38.1856 38.2661C37.5713 38.88 36.8353 39.3585 36.025 39.6709C34.9109 40.0843 33.7341 40.3035 32.5458 40.3188C30.5667 40.4105 30.0083 40.4334 24.9333 40.4334C19.8542 40.4334 19.3354 40.4334 17.3187 40.3188C16.1311 40.3043 14.9548 40.0851 13.8417 39.6709C13.0285 39.3605 12.2896 38.8828 11.6727 38.2687C11.0558 37.6547 10.5746 36.918 10.2604 36.1063C9.85091 34.9919 9.63188 33.8164 9.61248 32.6292C9.5229 30.6501 9.50207 30.0917 9.50207 25.0167C9.50207 19.9397 9.50207 19.4209 9.61248 17.4022C9.62595 16.2022 9.8451 15.0135 10.2604 13.8876C10.8958 12.2438 12.1979 10.9501 13.8417 10.3209C14.9554 9.90871 16.1313 9.68959 17.3187 9.673C19.3 9.58341 19.8562 9.55841 24.9333 9.55841C30.0104 9.55841 30.5312 9.55841 32.5458 9.673C33.7342 9.68729 34.9111 9.90648 36.025 10.3209C36.8353 10.634 37.5711 11.113 38.1853 11.7272C38.7996 12.3415 39.2786 13.0773 39.5917 13.8876C40.0011 15.0021 40.2202 16.1775 40.2396 17.3647C40.3292 19.3459 40.3521 19.9022 40.3521 24.9792C40.3521 30.0542 40.3521 30.6001 40.2625 32.5917H40.2396V32.5897Z" fill="black"/>
</svg>
