<svg width="50" height="50" viewBox="0 0 50 50" fill="none" xmlns="http://www.w3.org/2000/svg">
<path d="M41.6667 22.9147H45.8333C45.8333 12.2272 37.7646 4.16675 27.0625 4.16675V8.33342C35.525 8.33342 41.6667 14.4647 41.6667 22.9147Z" fill="black"/>
<path d="M27.0834 16.6666C31.4647 16.6666 33.3334 18.5353 33.3334 22.9166H37.5001C37.5001 16.1978 33.8022 12.4999 27.0834 12.4999V16.6666ZM34.2126 28.0062C33.8123 27.6423 33.2862 27.4483 32.7455 27.465C32.2048 27.4817 31.6918 27.7079 31.3147 28.0958L26.3293 33.2228C25.1293 32.9937 22.7168 32.2416 20.2334 29.7645C17.7501 27.2791 16.998 24.8603 16.7751 23.6687L21.898 18.6812C22.2864 18.3044 22.5129 17.7912 22.5296 17.2504C22.5463 16.7095 22.3519 16.1833 21.9876 15.7833L14.2897 7.31868C13.9252 6.91734 13.4186 6.6739 12.8775 6.64005C12.3364 6.60621 11.8034 6.78463 11.3918 7.13743L6.87093 11.0145C6.51075 11.376 6.29576 11.8571 6.26677 12.3666C6.23552 12.8874 5.63968 25.2249 15.2063 34.7958C23.5522 43.1395 34.0063 43.7499 36.8855 43.7499C37.3063 43.7499 37.5647 43.7374 37.6334 43.7333C38.1428 43.7047 38.6237 43.4888 38.9834 43.127L42.8584 38.6041C43.2115 38.1927 43.3903 37.6599 43.3568 37.1188C43.3234 36.5777 43.0803 36.071 42.6793 35.7062L34.2126 28.0062V28.0062Z" fill="black"/>
</svg>
